{
  "accessors": [
    {
      "bufferView": 2,
      "componentType": 5126,
      "count": 4746,
      "max": [
        54.560199737548828,
        29.450700759887695,
        86.924102783203125
      ],
      "min": [
        -50.352500915527344,
        -45.243400573730469,
        -0.11110000312328339
      ],
      "type": "VEC3"
    },
    {
      "bufferView": 2,
      "byteOffset": 56952,
      "componentType": 5126,
      "count": 4746,
      "max": [
        1,
        1,
        1
      ],
      "min": [
        -1,
        -1,
        -1
      ],
      "type": "VEC3"
    },
    {
      "bufferView": 3,
      "componentType": 5126,
      "count": 4746,
      "max": [
        1,
        1,
        1,
        1
      ],
      "min": [
        -1,
        -1,
        -1,
        -1
      ],
      "type": "VEC4"
    },
    {
      "bufferView": 1,
      "componentType": 5126,
      "count": 4746,
      "max": [
        0.99489998817443848,
        0.99889999628067017
      ],
      "min": [
        0.0010999999940395355,
        0.0027000000700354576
      ],
      "type": "VEC2"
    },
    {
      "bufferView": 0,
      "componentType": 5125,
      "count": 11136,
      "max": [
        4745
      ],
      "min": [
        0
      ],
      "type": "SCALAR"
    },
    {
      "bufferView": 2,
      "byteOffset": 113904,
      "componentType": 5126,
      "count": 5143,
      "max": [
        55.30670166015625,
        34.572601318359375,
        86.924102783203125
      ],
      "min": [
        -50.352500915527344,
        -45.243400573730469,
        -0.11110000312328339
      ],
      "type": "VEC3"
    },
    {
      "bufferView": 2,
      "byteOffset": 175620,
      "componentType": 5126,
      "count": 5143,
      "max": [
        1,
        1,
        1
      ],
      "min": [
        -1,
        -1,
        -1
      ],
      "type": "VEC3"
    },
    {
      "bufferView": 3,
      "byteOffset": 75936,
      "componentType": 5126,
      "count": 5143,
      "max": [
        1,
        1,
        1,
        1
      ],
      "min": [
        -1,
        -1,
        -1,
        -1
      ],
      "type": "VEC4"
    },
    {
      "bufferView": 1,
      "byteOffset": 37968,
      "componentType": 5126,
      "count": 5143,
      "max": [
        0.99610000848770142,
        0.9976000189781189
      ],
      "min": [
        0.0041000000201165676,
        0.0020000000949949026
      ],
      "type": "VEC2"
    },
    {
      "bufferView": 0,
      "byteOffset": 44544,
      "componentType": 5125,
      "count": 16920,
      "max": [
        5142
      ],
      "min": [
        0
      ],
      "type": "SCALAR"
    },
    {
      "bufferView": 2,
      "byteOffset": 237336,
      "componentType": 5126,
      "count": 1246,
      "max": [
        32.856899261474609,
        30.727399826049805,
        81.380500793457031
      ],
      "min": [
        -44.577201843261719,
        -45.243400573730469,
        -9.9999997473787516e-05
      ],
      "type": "VEC3"
    },
    {
      "bufferView": 2,
      "byteOffset": 252288,
      "componentType": 5126,
      "count": 1246,
      "max": [
        1,
        1,
        0.9960402250289917
      ],
      "min": [
        -1,
        -1,
        -0.99835121631622314
      ],
      "type": "VEC3"
    },
    {
      "bufferView": 3,
      "byteOffset": 158224,
      "componentType": 5126,
      "count": 1246,
      "max": [
        1,
        1,
        1,
        1
      ],
      "min": [
        -1,
        -1,
        -1,
        -1
      ],
      "type": "VEC4"
    },
    {
      "bufferView": 1,
      "byteOffset": 79112,
      "componentType": 5126,
      "count": 1246,
      "max": [
        0.97350001335144043,
        0.99849998950958252
      ],
      "min": [
        0.0068999999202787876,
        0.0035000001080334187
      ],
      "type": "VEC2"
    },
    {
      "bufferView": 0,
      "byteOffset": 112224,
      "componentType": 5125,
      "count": 3741,
      "max": [
        1245
      ],
      "min": [
        0
      ],
      "type": "SCALAR"
    },
    {
      "bufferView": 2,
      "byteOffset": 267240,
      "componentType": 5126,
      "count": 3747,
      "max": [
        91.151496887207031,
        160.52569580078125,
        108.07810211181641
      ],
      "min": [
        -74.079002380371094,
        -93.316497802734375,
        -0.53880000114440918
      ],
      "type": "VEC3"
    },
    {
      "bufferView": 2,
      "byteOffset": 312204,
      "componentType": 5126,
      "count": 3747,
      "max": [
        1,
        1,
        1
      ],
      "min": [
        -1,
        -1,
        -1
      ],
      "type": "VEC3"
    },
    {
      "bufferView": 3,
      "byteOffset": 178160,
      "componentType": 5126,
      "count": 3747,
      "max": [
        1,
        1,
        1,
        1
      ],
      "min": [
        -0.9999651312828064,
        -1,
        -1,
        -1
      ],
      "type": "VEC4"
    },
    {
      "bufferView": 1,
      "byteOffset": 89080,
      "componentType": 5126,
      "count": 3747,
      "max": [
        1,
        1.0009000301361084
      ],
      "min": [
        0,
        9.9999997473787516e-05
      ],
      "type": "VEC2"
    },
    {
      "bufferView": 0,
      "byteOffset": 127188,
      "componentType": 5125,
      "count": 11550,
      "max": [
        3746
      ],
      "min": [
        0
      ],
      "type": "SCALAR"
    }
  ],
  "asset": {
    "extras": {
      "author": "asws3 (https://sketchfab.com/asws3)",
      "license": "CC-BY-4.0 (http://creativecommons.org/licenses/by/4.0/)",
      "source": "https://sketchfab.com/models/429e0904ae0d40acb650d01b6b05a797",
      "title": "teahouse"
    },
    "generator": "Sketchfab-3.22.13",
    "version": "2.0"
  },
  "bufferViews": [
    {
      "buffer": 0,
      "byteLength": 173388,
      "byteOffset": 0,
      "name": "floatBufferViews",
      "target": 34963
    },
    {
      "buffer": 0,
      "byteLength": 119056,
      "byteOffset": 173388,
      "byteStride": 8,
      "name": "floatBufferViews",
      "target": 34962
    },
    {
      "buffer": 0,
      "byteLength": 357168,
      "byteOffset": 292444,
      "byteStride": 12,
      "name": "floatBufferViews",
      "target": 34962
    },
    {
      "buffer": 0,
      "byteLength": 238112,
      "byteOffset": 649612,
      "byteStride": 16,
      "name": "floatBufferViews",
      "target": 34962
    }
  ],
  "buffers": [
    {
      "byteLength": 887724,
      "uri": "scene.bin"
    }
  ],
  "images": [
    {
      "uri": "textures/Material__446_baseColor.jpg"
    },
    {
      "uri": "textures/Material__447_baseColor.png"
    }
  ],
  "materials": [
    {
      "doubleSided": true,
      "emissiveFactor": [
        0,
        0,
        0
      ],
      "name": "Material__446",
      "pbrMetallicRoughness": {
        "baseColorFactor": [
          1,
          1,
          1,
          1
        ],
        "baseColorTexture": {
          "index": 0,
          "texCoord": 0
        },
        "metallicFactor": 0,
        "roughnessFactor": 0.59999999999999998
      }
    },
    {
      "alphaCutoff": 1,
      "alphaMode": "MASK",
      "doubleSided": true,
      "emissiveFactor": [
        0,
        0,
        0
      ],
      "name": "Material__447",
      "pbrMetallicRoughness": {
        "baseColorFactor": [
          1,
          1,
          1,
          1
        ],
        "baseColorTexture": {
          "index": 1,
          "texCoord": 0
        },
        "metallicFactor": 0,
        "roughnessFactor": 0.59999999999999998
      }
    }
  ],
  "meshes": [
    {
      "primitives": [
        {
          "attributes": {
            "NORMAL": 1,
            "POSITION": 0,
            "TANGENT": 2,
            "TEXCOORD_0": 3
          },
          "indices": 4,
          "material": 0,
          "mode": 4
        }
      ]
    },
    {
      "primitives": [
        {
          "attributes": {
            "NORMAL": 6,
            "POSITION": 5,
            "TANGENT": 7,
            "TEXCOORD_0": 8
          },
          "indices": 9,
          "material": 0,
          "mode": 4
        }
      ]
    },
    {
      "primitives": [
        {
          "attributes": {
            "NORMAL": 11,
            "POSITION": 10,
            "TANGENT": 12,
            "TEXCOORD_0": 13
          },
          "indices": 14,
          "material": 0,
          "mode": 4
        }
      ]
    },
    {
      "primitives": [
        {
          "attributes": {
            "NORMAL": 16,
            "POSITION": 15,
            "TANGENT": 17,
            "TEXCOORD_0": 18
          },
          "indices": 19,
          "material": 1,
          "mode": 4
        }
      ]
    }
  ],
  "nodes": [
    {
      "children": [
        1
      ],
      "name": "RootNode (gltf orientation matrix)",
      "rotation": [
        -0.70710678118654746,
        -0,
        -0,
        0.70710678118654757
      ]
    },
    {
      "children": [
        2
      ],
      "name": "RootNode (model correction matrix)"
    },
    {
      "children": [
        3,
        4,
        5,
        6
      ],
      "name": "bluehouse.obj.cleaner"
    },
    {
      "mesh": 0,
      "name": ""
    },
    {
      "mesh": 1,
      "name": ""
    },
    {
      "mesh": 2,
      "name": ""
    },
    {
      "mesh": 3,
      "name": ""
    }
  ],
  "samplers": [
    {
      "magFilter": 9729,
      "minFilter": 9987,
      "wrapS": 10497,
      "wrapT": 10497
    }
  ],
  "scene": 0,
  "scenes": [
    {
      "name": "OSG_Scene",
      "nodes": [
        0
      ]
    }
  ],
  "textures": [
    {
      "sampler": 0,
      "source": 0
    },
    {
      "sampler": 0,
      "source": 1
    }
  ]
}

